<?xml version="1.0" encoding="utf-8"?>
<!-- Generator: Adobe Illustrator 21.0.0, SVG Export Plug-In . SVG Version: 6.00 Build 0)  -->
<svg version="1.1" id="Layer_1" xmlns="http://www.w3.org/2000/svg" xmlns:xlink="http://www.w3.org/1999/xlink" x="0px" y="0px"
	 viewBox="0 0 528 99.2" style="enable-background:new 0 0 528 99.2;" xml:space="preserve">
<style type="text/css">
	.st0{fill:#F87F0D;}
	.st1{fill:#FFFFFF;}
</style>
<title>Asset 2</title>
<g id="Layer_2">
	<g id="Layer_1-2">
		<path class="st0" d="M92.5,52.2c0.6,3.3,1.1,6.2,1.6,9.1c1,6.5,1.9,13,3,19.4c0.3,0.9,1,1.5,1.9,1.8c5.2,0.2,10.4,0.2,15.6,0
			c0.8,0,1.9-1.2,2.3-2.1c4.9-12.1,9.7-24.2,14.5-36.3c3.3-8.2,6.6-16.4,9.9-24.6c0.8-2,0.5-2.6-1.7-2.6c-7.7,0-15.3,0-23,0
			c-1.6,0-2.3,0.8-2.9,2.2c-2.8,6.9-5.7,13.7-8.5,20.6c-0.3,0.7-0.6,1.3-0.9,2l-0.7-0.1c-0.7-3.8-1.4-7.7-2-11.5
			c-0.4-2.2-0.7-4.4-1-6.6c-0.2-2-1.6-3.8-3.5-4.4c-1.9-0.7-4-0.1-5.2,1.5c-5.2,6-10.4,12.1-15.5,18.2c-1.8,2.2-3.6,4.4-5.5,6.6
			l-0.6-0.3c0-1,0.1-1.9,0.2-2.9c1.6-7.4,3.3-14.8,4.9-22.2c0.7-3.1,0.3-3.6-2.7-4.2L0.9,0.9C0.6,0.7,0.3,0.5,0,0.3
			C1.4,0.2,2.3,0,3.2,0h116.6c12.9,0,25.8,0,38.6,0c7.4,0,9.4,2.5,6.7,9.3c-4.6,12.2-9.6,24.2-14.5,36.3
			c-6.4,16-12.9,32.1-19.3,48.1c-1.4,3.5-3.5,5-6.9,5l-96.9,0.4c-1,0-2.1,0-3.1-0.2c-2.8-0.5-4.7-2.4-4.3-5.2
			c0.8-5.8,1.9-11.6,3.1-17.4c1.9-9,3.9-17.9,5.9-26.8c1-4.8,2-9.6,3.1-14.4c0.5-1.8-0.1-3.7-1.5-4.9c-6.5-5.8-12.9-11.6-19.3-17.4
			c-0.7-0.6-1.2-1.4-1.4-2.3l3.4,1.3c10.9,4.3,21.7,8.7,32.5,13c5,2,6.5,4.9,5.3,10.3c-2.4,11.1-4.9,22.2-7.3,33.3
			c-0.8,3.8-1.7,7.7-2.5,11.6c-0.4,1.6,0.1,2.4,1.8,2.4c7.4,0,14.9,0,22.3-0.1c1.1-0.1,2.1-0.6,2.8-1.4c5.2-6.3,10.3-12.7,15.5-19
			c2.3-2.9,4.7-5.7,7.1-8.5C91.3,53,91.9,52.5,92.5,52.2z"/>
		<path class="st1" d="M260.6,19.7v47.5c0,2.8-0.5,5.6-1.7,8.2c-2.1,5-6.1,9-11.2,11.2c-2.6,1.1-5.4,1.7-8.2,1.7
			c-2.4,0-4.8-0.4-7.1-1.2c-2.2-0.8-4.3-1.9-6.1-3.4c-6,4.8-14.2,6-21.4,2.9c-2.5-1.1-4.8-2.6-6.7-4.5c-1.9-1.9-3.5-4.2-4.6-6.7
			c-1.1-2.6-1.7-5.4-1.6-8.2V19.7h15.9v47.5c0,1.4,0.5,2.7,1.5,3.7c2.1,2.1,5.4,2.1,7.5,0c0,0,0,0,0,0c1-1,1.5-2.3,1.5-3.7V46.1
			h15.8v21.2c0,1.4,0.5,2.8,1.5,3.7c2.1,2.1,5.4,2.1,7.5,0c0,0,0,0,0,0c1-1,1.5-2.3,1.5-3.7V19.7H260.6z"/>
		<path class="st1" d="M281.8,37.1c-1,1-1.5,2.3-1.5,3.7v5.3h37V62h-36.9v5.3c0,1.4,0.5,2.7,1.5,3.7c1,1,2.3,1.6,3.8,1.6h31.7v15.8
			h-31.7c-2.8,0-5.6-0.5-8.2-1.7c-5-2.1-9-6.1-11.2-11.2c-1.1-2.6-1.7-5.4-1.7-8.2V40.8c0-2.8,0.5-5.6,1.7-8.2
			c2.1-5,6.1-9,11.2-11.2c2.6-1.1,5.4-1.7,8.2-1.7h31.7v15.9h-31.7C284.1,35.6,282.8,36.1,281.8,37.1z"/>
		<path class="st1" d="M373.8,40.8c0,2.4-0.4,4.8-1.2,7.1c-0.8,2.2-1.9,4.3-3.4,6.1c1.4,1.8,2.6,3.9,3.4,6.1
			c0.8,2.3,1.2,4.7,1.2,7.1c0,2.8-0.5,5.6-1.7,8.2c-2.1,5-6.1,9-11.2,11.2c-2.6,1.1-5.4,1.7-8.2,1.7h-31.6V19.7h31.6
			c2.8,0,5.6,0.5,8.2,1.7c5,2.1,9,6.1,11.2,11.2C373.3,35.2,373.9,38,373.8,40.8z M336.9,35.6v10.5h15.9c2.9,0.1,5.2-2.2,5.3-5.1
			c0-0.1,0-0.1,0-0.2c0-1.4-0.5-2.7-1.5-3.7c-1-1-2.4-1.6-3.8-1.5H336.9z M352.8,72.6c1.4,0,2.8-0.5,3.8-1.6c2.1-2.1,2.1-5.4,0-7.5
			c-1-1-2.4-1.6-3.8-1.5h-15.9v10.6H352.8z"/>
		<path class="st1" d="M395.1,37.1c-1,1-1.5,2.3-1.5,3.7v5.3h37V62h-37v5.3c0,1.4,0.5,2.7,1.5,3.7c1,1,2.3,1.6,3.8,1.6h31.6v15.8
			h-31.6c-2.8,0-5.6-0.5-8.2-1.7c-5-2.1-9-6.1-11.2-11.2c-1.1-2.6-1.7-5.4-1.7-8.2V40.8c0-2.8,0.5-5.6,1.7-8.2
			c2.1-5,6.1-9,11.2-11.2c2.6-1.1,5.4-1.7,8.2-1.7h31.6v15.9h-31.7C397.4,35.6,396.1,36.1,395.1,37.1z"/>
		<path class="st1" d="M450.2,72.4h26.4v15.9h-42.1V72.4l26.4-36.8h-26.4V19.7h42.1v15.9L450.2,72.4z"/>
		<path class="st1" d="M528,19.7l-15.9,36.9v31.7h-15.8V56.7l-15.9-36.9h16.3l7.5,21.1l7.5-21.1H528z"/>
	</g>
</g>
</svg>
